inDegrees=yes
name=ik_lifting_orientations
DataType=double
version=3
OpenSimVersion=4.5-2024-01-10-34fd6af
endheader
time	pelvis_tilt	pelvis_list	pelvis_rotation	pelvis_tx	pelvis_ty	pelvis_tz	hip_flexion_r	hip_adduction_r	hip_rotation_r	knee_angle_r	knee_angle_r_beta	ankle_angle_r	subtalar_angle_r	mtp_angle_r	hip_flexion_l	hip_adduction_l	hip_rotation_l	knee_angle_l	knee_angle_l_beta	ankle_angle_l	subtalar_angle_l	mtp_angle_l	lumbar_extension	lumbar_bending	lumbar_rotation	arm_flex_r	arm_add_r	arm_rot_r	elbow_flex_r	pro_sup_r	wrist_flex_r	wrist_dev_r	arm_flex_l	arm_add_l	arm_rot_l	elbow_flex_l	pro_sup_l	wrist_flex_l	wrist_dev_l
0.02	-0.001756975772941992	0.002560893044163438	-89.88774915766865	0	0.9399999998679526	0	43.24021503208672	-11.06702536977112	0	57.7699951290875	1.008276623863664	-5.569892512656791	0	0	43.24021503208672	-11.06702536977112	0	57.7699951290875	1.008276623863664	-5.569892512656791	0	0	0.009693346867300969	-0.00535769942475274	-0.02190915004462079	-0.2028177837809154	-0.03511947562934783	0.0105068339552988	0.4033143370448867	5.872040552382006	0	0	0	-9.560080741983107	0	84.18972910183111	5.872040552382006	0	0
0.03	-0.008741487778634939	-0.07074457309936552	-89.79129631726987	0	0.9399999998679526	0	43.2721385540268	-11.00890190792379	0	57.80211319386657	1.008837189843427	-5.531661088924001	0	0	43.2721385540268	-11.00890190792379	0	57.80211319386657	1.008837189843427	-5.531661088924001	0	0	-0.07385566999123744	0.01510738902237174	-0.09430869682356033	-0.2419158954337153	-0.03665553300334403	-0.06370464845644591	0.5134874843774516	5.796217162612892	0	0	0	-9.612310487913785	0	84.26474712512206	5.796217162612892	0	0
0.04	-0.02404517283363673	-0.1109910020593343	-89.72182831212771	0	0.9399999998679526	0	43.3080990289336	-10.94348303591322	0	57.83828755951749	1.009468551628856	-5.488710394652775	0	0	43.3080990289336	-10.94348303591322	0	57.83828755951749	1.009468551628856	-5.488710394652775	0	0	-0.1428693786303388	0.02582628715219084	-0.2024735002583488	-0.210787535583416	-0.02627711013351351	0.01264257937176106	0.5141471783791404	5.71082680092757	0	0	0	-9.671117574451589	0	84.34923046321549	5.71082680092757	0	0
0.05	-0.03390047059913964	-0.1290925479896607	-89.77995865877844	0	0.9399999998679526	0	43.35104851396346	-10.87044103521296	0	57.88177116637016	1.010227483739078	-5.441935502190885	0	0	43.35104851396346	-10.87044103521296	0	57.88177116637016	1.010227483739078	-5.441935502190885	0	0	-0.1978852418284218	0.01375255083172702	-0.1764031164983868	-0.1677963679029107	-0.00116068962767463	0.04316811451789096	0.5086244545212883	5.607921448104212	0	0	0	-9.74239762281948	0	84.45104327029543	5.607921448104212	0	0
0.06	-0.021352130677796	-0.09339444594605592	-89.89714179636312	0	0.9399999998679526	0	43.40057312289978	-10.7920605219863	0	57.93228085739148	1.011109044151565	-5.393008097925795	0	0	43.40057312289978	-10.7920605219863	0	57.93228085739148	1.011109044151565	-5.393008097925795	0	0	-0.15884466381863	0.008759573830352498	-0.06508306724941655	-0.4101056367429174	-0.06350923400781663	0.07558989450757063	1.000846233104972	5.488077286250149	0	0	0	-9.825946893633468	0	84.56961568035732	5.488077286250149	0	0
0.07000000000000001	-0.005545647227538596	-0.06961711267824913	-90.02780370615447	0	0.9399999998679526	0	43.44688822152843	-10.72020127006584	0	57.97959583391751	1.011934846277448	-5.348520810791943	0	0	43.44688822152843	-10.72020127006584	0	57.97959583391751	1.011934846277448	-5.348520810791943	0	0	-0.1377688385714959	-0.0163510824755041	0.04226040472540897	-0.1672475834915312	0.03676799106218565	0.09321668021712651	0.5136009239519786	5.375727220837619	0	0	0	-9.904390113219181	0	84.68077362956389	5.375727220837619	0	0
0.08	-0.0505655432632693	-0.06236081035393811	-89.6063141160224	0	0.9399999998679526	0	43.44726221415096	-10.7196076695402	0	57.97998423160462	1.011941625095895	-5.348147671554359	0	0	43.44726221415096	-10.7196076695402	0	57.97998423160462	1.011941625095895	-5.348147671554359	0	0	-0.1256868869123804	0.03320930163532584	-0.4097003732216684	-0.1911584981378896	0.0365400993942187	0.1251580827033314	0.4822940339121391	5.374818199462618	0	0	0	-9.905026787225809	0	84.68167300547512	5.374818199462618	0	0
0.09	-0.06780584550113553	0.00678884668674344	-89.59552529293308	0	0.9399999998679526	0	43.47825540957654	-10.67606039895617	0	58.01196019625041	1.012499710960465	-5.322116751241944	0	0	43.47825540957654	-10.67606039895617	0	58.01196019625041	1.012499710960465	-5.322116751241944	0	0	-0.06089883359078042	0.04711645432764698	-0.4879580911933968	-0.1980339990522999	0.05651646939764909	0.1978230724548471	0.4754612266750587	5.2986004942289	0	0	0	-9.958712766840479	0	84.75708250004328	5.2986004942289	0	0
0.1	-0.09114471423868167	0.008636861170964804	-89.60264513225499	0	0.9399999998679526	0	43.50636299628022	-10.63841554020799	0	58.041096464309	1.013008234769831	-5.299997685471371	0	0	43.50636299628022	-10.63841554020799	0	58.041096464309	1.013008234769831	-5.299997685471371	0	0	-0.06352061555819181	0.06864936378852945	-0.4818430138097268	-0.2026173253389357	0.079488437110306	0.1960849439581008	0.4659911996491787	5.229020129787653	0	0	0	-10.0079326054248	0	84.82592525231058	5.229020129787653	0	0
0.11	-0.0892052240770992	0.006734721161801686	-89.72443238380106	0	0.9399999998679526	0	43.53988778146495	-10.59396686956832	0	58.07587687848773	1.013615267512458	-5.274009717719451	0	0	43.53988778146495	-10.59396686956832	0	58.07587687848773	1.013615267512458	-5.274009717719451	0	0	-0.06313089112656101	0.06790167874978201	-0.3619630530610372	-0.2076914508373249	0.103444892768473	0.1706844566324399	0.471489272719135	5.145939876877449	0	0	0	-10.06674052779992	0	84.90812480759683	5.145939876877449	0	0
0.12	-0.07395975900550406	0.00865365114149271	-89.78641401794808	0	0.9399999998679526	0	43.5400734286777	-10.59370353885108	0	58.07606932642978	1.013618626362685	-5.273851336100947	0	0	43.5400734286777	-10.59370353885108	0	58.07606932642978	1.013618626362685	-5.273851336100947	0	0	-0.09914565076820817	0.04394761255849926	-0.3610394348653374	-0.1995301662560099	0.1304644867996067	0.2445590130448084	0.4621122132267459	5.145483104611688	0	0	0	-10.06706255813702	0	84.90857673609676	5.145483104611688	0	0
